<svg xmlns="http://www.w3.org/2000/svg" enable-background="new 0 0 64 64" viewBox="0 0 64 64" id="prediction"><path d="M58 36h-2v24h-2V25h-2v35h-2V28h-2v32h-2V36h-2v24h-2V49h-2v11h-2V48h-2v12h-2V40h-2v20h-2V38h-2v22h-2V43h-2v17h-2v-6h-2v6h-2v-9h-2v9h-2V47h-2v13h-2v-5H8v5H4V2H2v59c0 .553.447 1 1 1h59v-2h-4V36zM50.53 15.43c-.021 0-.03.01-.04.021l-1.101 1.67c-.01.01-.01.02-.01.029 0 .021.01.03.02.04l1.58 1.051c.011 0 .021.01.03.01s.03-.01.04-.03l1.11-1.66c.01-.02.01-.05-.011-.069l-1.59-1.051C50.55 15.43 50.54 15.43 50.53 15.43zM53.229 14.92c.011 0 .03-.01.04-.021l1.11-1.67c.01-.02.01-.05-.021-.069l-1.579-1.051c-.011-.01-.021-.01-.03-.01-.021 0-.03.01-.04.021l-1.11 1.67c0 .01-.01.02 0 .04 0 .01.01.02.021.029l1.58 1.051C53.21 14.92 53.22 14.92 53.229 14.92zM48.31 18.76c-.01 0-.029.01-.029.021l-1.11 1.67c-.021.02-.01.05.01.069l1.58 1.05c.01 0 .021.011.03.011h.01c.01-.011.02-.011.03-.021l1.109-1.67c.021-.02.011-.05-.01-.07l-1.58-1.05C48.33 18.76 48.319 18.75 48.31 18.76z"></path><path d="M8.923 48.385l4.281-10.275 4.964 7.445c.179.269.476.434.798.444.355.038.631-.134.827-.39l9.397-12.217L36.4 38.8c.222.167.506.234.777.185.274-.05.515-.211.664-.445l9.601-15-1.685-1.078-9.02 14.093L29.6 31.2c-.438-.329-1.059-.244-1.393.19l-9.149 11.894-5.226-7.839c-.205-.308-.565-.476-.929-.44-.367.035-.685.271-.826.61l-5 12L8.923 48.385zM58.754 2h-2.508C54.456 2 53 3.456 53 5.246V7h2V5.246C55 4.559 55.559 4 56.246 4h2.508C59.441 4 60 4.559 60 5.246c0 .573-.388 1.07-.942 1.209l-.599.149C57.011 6.966 56 8.262 56 9.754V11h2V9.754c0-.573.388-1.07.942-1.209l.599-.149C60.989 8.034 62 6.738 62 5.246 62 3.456 60.544 2 58.754 2z"></path><rect width="2" height="2" x="56" y="13"></rect><rect width="4" height="2" x="9" y="5"></rect><rect width="14" height="2" x="15" y="5"></rect><rect width="4" height="2" x="9" y="9"></rect><rect width="14" height="2" x="15" y="9"></rect><rect width="4" height="2" x="9" y="13"></rect><rect width="14" height="2" x="15" y="13"></rect></svg>