<svg xmlns="http://www.w3.org/2000/svg" viewBox="0 0 64 64" id="industrial-robot"><path d="M55.24268,54.52759V39.75806H51.27832V25.63245a5.41756,5.41756,0,0,0-4.73584-8.058c-.11163,0-.2207.01013-.33069.01679L33.9881,11.14911a5.41417,5.41417,0,0,0-10.07019,2.33325l-6.67768,7.66876a4.06131,4.06131,0,0,0,.03034,5.351l-1.53833,1.53833a4.24176,4.24176,0,0,0-5.64972.29376l.707.707a3.24965,3.24965,0,0,1,4.5957,4.5957l.707.707a4.2106,4.2106,0,0,0,.343-5.59253l1.58362-1.58361a4.038,4.038,0,0,0,5.358-.67249l6.26349-7.1925a5.38268,5.38268,0,0,0,1.66883-.3667l9.94262,5.2398a5.38455,5.38455,0,0,0,.55426,1.4563v14.1258H37.8418V54.52759H23.47168V45.5979H9.07617v8.92969H7v1H57v-1Zm-37.49414,0H10.07617V46.5979h7.67237Zm4.72314,0H18.74854V46.5979h3.72314Zm27.80664-27.6001V39.75806H42.80615V26.92749c.02277.02167.05048.03662.07361.05786a5.44944,5.44944,0,0,0,.69251.54431c.039.02564.0794.04779.11908.07239a5.40626,5.40626,0,0,0,.79785.41217c.03155.01294.064.02283.09588.03516a5.366,5.366,0,0,0,.90277.2666c.01954.00384.03943.00537.059.009a5.22892,5.22892,0,0,0,1.99164,0c.01935-.00366.039-.00513.05829-.00891a5.36049,5.36049,0,0,0,.90381-.26691c.03143-.01214.06341-.02191.09454-.03466a5.40042,5.40042,0,0,0,.79908-.41285c.03918-.02435.07916-.04626.11779-.07159a5.45664,5.45664,0,0,0,.6944-.546C50.22894,26.96326,50.2561,26.94867,50.27832,26.92749ZM22.62305,25.83862a3.069,3.069,0,1,1-4.62891-4.03076l5.99951-6.88965c.00171.009.00543.01728.0072.02631a5.36268,5.36268,0,0,0,.19165.7019c.01819.053.03785.10474.05756.157a5.40093,5.40093,0,0,0,.28528.63952l.01294.0268a5.42246,5.42246,0,0,0,.38788.60522c.03271.04492.06555.08917.09955.13306a5.46646,5.46646,0,0,0,.46881.53644c.0141.014.02978.02612.04406.04a5.46434,5.46434,0,0,0,.50867.43274c.04273.03235.08472.065.12836.09607a5.425,5.425,0,0,0,.60278.37488c.03345.01776.06842.03235.1023.04938a5.38962,5.38962,0,0,0,.58947.25329c.04645.01685.09168.03522.13874.05085a5.37659,5.37659,0,0,0,.70227.18121c.01758.0033.03375.01013.05139.01324Zm19.15-5.42029c-.06.11146-.11285.22614-.165.34211-.05127.11273-.09753.22778-.14117.34442-.03357.09088-.07111.17932-.09992.27246a5.38329,5.38329,0,0,0-.15576.64874c-.01233.06909-.02222.13861-.03192.20862a5.42646,5.42646,0,0,0-.05713.70453c-.00012.01245-.00293.02417-.003.03662l-8.73975-4.606.00562-.00439a5.44763,5.44763,0,0,0,.46973-.36554c.03955-.03412.07708-.06983.1156-.105q.17148-.15673.3291-.32721c.036-.03906.07226-.0777.10712-.1178q.17376-.19968.32794-.41541c.01373-.0194.02911-.03753.04266-.05706a5.41378,5.41378,0,0,0,.58344-1.09351c.01611-.04071.03009-.082.04522-.12317q.08277-.22494.14582-.45837c.01452-.0539.02874-.10755.04168-.16193.03553-.15057.06354-.30359.08625-.45862.008-.05407.01837-.10717.02471-.16168a5.05267,5.05267,0,0,0,.00147-1.23932c-.00635-.05542-.01721-.10992-.02527-.1651-.02167-.14947-.04773-.29724-.08142-.44256-.006-.02613-.00818-.05316-.01459-.07917l10.08106,5.3125c-.03961.01441-.07489.03632-.114.05158q-.23456.093-.45758.20715c-.15027.07544-.2937.15936-.43518.2478-.07153.04517-.14294.08991-.21216.13825a5.35416,5.35416,0,0,0-1.04211.949c-.02808.0332-.05579.06646-.08313.10034a5.35435,5.35435,0,0,0-.515.76214C41.79584,20.38171,41.78345,20.39929,41.77307,20.41833Zm-20.526,28.15418h-1.46v-1h1.46Zm24.55518-28.022v-1a4.03406,4.03406,0,0,1,4.02929,4.02978h-1A3.03307,3.03307,0,0,0,45.80225,20.55054ZM32.5,14.47485h-1a3.03349,3.03349,0,0,0-3.02979-3.02978v-1A4.03418,4.03418,0,0,1,32.5,14.47485ZM46.334,50.8811a3.23828,3.23828,0,1,1,3.23829-3.23828A3.2422,3.2422,0,0,1,46.334,50.8811ZM52.93749,53.221H51.7793v-1h1.15819Zm0-2.04883H51.7793v-1h1.15819ZM49.74219,52.221h1.1582v1h-1.1582Z"></path></svg>